<svg width="150" height="150" viewBox="0 0 150 150" fill="none" xmlns="http://www.w3.org/2000/svg">
<rect width="150" height="150" fill="white"/>
<path d="M13 27.5C31.1667 33.8333 81.3 42.7 136.5 27.5" stroke="black" stroke-width="5" stroke-linecap="round"/>
<path d="M56.9963 42.3485C56.808 42.1272 56.5305 42 56.24 42H56.0617L23.823 67.4987C23.375 67.853 23.3143 68.5099 23.6897 68.9403L35.7082 82.7188C36.0658 83.1288 36.6857 83.1776 37.1031 82.8287L46.0377 75.3598C46.7075 74.7999 47.7229 75.307 47.6778 76.1788L45.3075 121.948C45.2779 122.52 45.7336 123 46.3062 123H103.924C104.512 123 104.973 122.495 104.92 121.91L100.765 76.0651C100.688 75.2126 101.648 74.6634 102.343 75.162L113.113 82.8788C113.56 83.1987 114.181 83.0987 114.504 82.6548L125.431 67.655C125.748 67.2194 125.663 66.6107 125.239 66.2786L94.4814 42.2124C94.3055 42.0748 94.0885 42 93.8651 42H93.5741C88.7898 47.5377 87.8518 52.2047 75.1358 52.2047C63.9322 52.2047 61.5789 47.732 56.9963 42.3485Z" fill="white"/>
<path d="M56.0617 42H56.24C56.5305 42 56.808 42.1272 56.9963 42.3485C61.5789 47.732 63.9322 52.2047 75.1358 52.2047C87.8518 52.2047 88.7898 47.5377 93.5741 42M56.0617 42L23.823 67.4987C23.375 67.853 23.3143 68.5099 23.6897 68.9403L35.7082 82.7188C36.0658 83.1288 36.6857 83.1776 37.1031 82.8287L46.0377 75.3598C46.7075 74.7999 47.7229 75.307 47.6778 76.1788L45.3075 121.948C45.2779 122.52 45.7336 123 46.3062 123H103.924C104.512 123 104.973 122.495 104.92 121.91L100.765 76.0651C100.688 75.2126 101.648 74.6634 102.343 75.162L113.113 82.8788C113.56 83.1987 114.181 83.0987 114.504 82.6548L125.431 67.655C125.748 67.2194 125.663 66.6107 125.239 66.2786L94.4814 42.2124C94.3055 42.0748 94.0885 42 93.8651 42H93.5741M56.0617 42C56.0617 42 67.6498 43.939 75.1358 43.9134C82.3748 43.8886 93.5741 42 93.5741 42" stroke="black" stroke-width="5"/>
<rect x="43.8956" y="30.1533" width="4" height="20" rx="2" transform="rotate(-18.3271 43.8956 30.1533)" fill="white" stroke="black" stroke-width="3"/>
<rect x="101.883" y="28.8303" width="4" height="20" rx="2" transform="rotate(14.6327 101.883 28.8303)" fill="white" stroke="black" stroke-width="3"/>
</svg>
