<svg width="150" height="150" viewBox="0 0 150 150" fill="none" xmlns="http://www.w3.org/2000/svg">
<rect width="150" height="150" fill="white"/>
<rect x="38.5" y="79.5" width="74" height="9" stroke="black" stroke-width="5"/>
<rect x="32.5" y="109.329" width="85" height="6.8421" stroke="black" stroke-width="5"/>
<path d="M40.0658 133.474L58.4211 89.6579H69.375L51.0197 133.474H40.0658Z" fill="white" stroke="black" stroke-width="5"/>
<path d="M110.23 133.77L91.875 89.9539H80.921L99.2763 133.77H110.23Z" fill="white" stroke="black" stroke-width="5"/>
<path d="M14 58.7939C17.8905 58.7939 18.3228 55.8777 18.8632 54.4197C19.2049 53.4975 19.5116 51.5035 22.1053 51.5035C24.699 51.5035 25.0772 53.4476 25.3474 54.4197C25.7077 55.7157 27.0765 58.3079 29.6702 58.3079C32.2639 58.3079 33.6328 55.7157 33.9931 54.4197C34.2632 53.4476 35.0738 51.5035 37.2352 51.5035C39.3966 51.5035 39.937 53.4476 40.4773 54.4197C41.2023 55.7238 41.7742 58.3079 44.8001 58.3079" stroke="black" stroke-width="5" stroke-linecap="square"/>
<path d="M44.707 58.2914C48.5976 58.2914 49.0299 55.3753 49.5702 53.9172C49.912 52.995 50.2186 51.001 52.8123 51.001C55.406 51.001 55.7843 52.9451 56.0544 53.9172C56.4147 55.2133 57.7836 57.8054 60.3773 57.8054C62.971 57.8054 64.3399 55.2133 64.7001 53.9172C64.9703 52.9451 65.7808 51.001 67.9422 51.001C70.1036 51.001 70.644 52.9451 71.1843 53.9172C71.9093 55.2213 72.4812 57.8054 75.5072 57.8054" stroke="black" stroke-width="5" stroke-linecap="square"/>
<path d="M75.4862 57.7929C79.3767 57.7929 79.809 54.8767 80.3494 53.4187C80.6911 52.4965 80.9978 50.5025 83.5915 50.5025C86.1852 50.5025 86.5634 52.4466 86.8336 53.4187C87.1939 54.7147 88.5628 57.3068 91.1564 57.3068C93.7501 57.3068 95.119 54.7147 95.4793 53.4187C95.7495 52.4466 96.56 50.5025 98.7214 50.5025C100.883 50.5025 101.423 52.4466 101.964 53.4187C102.688 54.7228 103.26 57.3068 106.286 57.3068" stroke="black" stroke-width="5" stroke-linecap="square"/>
<path d="M106.193 57.2904C110.084 57.2904 110.516 54.3742 111.056 52.9161C111.398 51.994 111.705 50 114.299 50C116.892 50 117.27 51.9441 117.541 52.9161C117.901 54.2122 119.27 56.8043 121.863 56.8043C124.457 56.8043 125.826 54.2122 126.186 52.9161C126.456 51.9441 127.267 50 129.428 50C131.59 50 132.13 51.9441 132.671 52.9161C133.396 54.2203 133.967 56.8043 136.993 56.8043" stroke="black" stroke-width="5" stroke-linecap="square"/>
<path d="M35 25.5172C35 27.993 33.2091 30 31 30C28.7909 30 27 27.993 27 25.5172C27 23.0415 31 17 31 17C31 17 35 23.0415 35 25.5172Z" fill="black"/>
<path d="M57 25.5172C57 27.993 55.2091 30 53 30C50.7909 30 49 27.993 49 25.5172C49 23.0415 53 17 53 17C53 17 57 23.0415 57 25.5172Z" fill="black"/>
<path d="M79 25.5172C79 27.993 77.2091 30 75 30C72.7909 30 71 27.993 71 25.5172C71 23.0415 75 17 75 17C75 17 79 23.0415 79 25.5172Z" fill="black"/>
<path d="M101 25.5172C101 27.993 99.2091 30 97 30C94.7909 30 93 27.993 93 25.5172C93 23.0415 97 17 97 17C97 17 101 23.0415 101 25.5172Z" fill="black"/>
<path d="M123 25.5172C123 27.993 121.209 30 119 30C116.791 30 115 27.993 115 25.5172C115 23.0415 119 17 119 17C119 17 123 23.0415 123 25.5172Z" fill="black"/>
</svg>
